<svg xmlns="http://www.w3.org/2000/svg" width="257" height="277" viewBox="0 0 257 277">
<g>
<path d="M 1.18,273.92 C1.43,273.14 3.08,271.60 4.84,270.50 C23.14,259.06 46.29,242.07 69.41,223.10 C84.18,210.98 97.00,199.25 97.00,197.85 C97.00,196.47 111.26,173.88 118.06,164.50 C124.22,155.98 134.40,145.55 142.33,139.61 C149.81,134.01 150.24,135.36 143.00,141.69 C128.93,153.97 120.48,164.06 108.21,183.17 C101.42,193.74 100.67,195.77 104.25,193.88 C109.60,191.06 123.11,181.57 130.35,175.54 C134.67,171.94 138.39,169.00 138.62,169.00 C138.85,169.00 135.54,173.59 131.27,179.20 C127.00,184.81 113.37,199.77 100.99,212.45 C88.60,225.13 72.20,242.18 64.54,250.34 C52.04,263.66 43.17,270.98 39.50,270.98 C38.95,270.98 55.61,254.00 76.52,233.24 C97.43,212.48 115.64,193.93 117.00,192.02 C119.41,188.62 119.27,188.67 111.49,194.09 C107.09,197.14 101.47,200.81 99.00,202.23 C96.53,203.65 87.28,210.82 78.46,218.16 C50.97,241.03 37.12,251.64 19.00,263.68 C3.82,273.76 0.64,275.59 1.18,273.92 M 170.43,244.63 C174.10,241.17 174.76,239.59 172.98,238.49 C172.43,238.15 171.28,236.21 170.43,234.18 L 168.89,230.50 L 167.10,232.87 C165.52,234.96 165.23,235.04 164.65,233.54 C164.29,232.60 164.00,230.30 164.00,228.42 C164.00,224.37 162.98,224.19 157.50,227.29 C154.38,229.06 153.36,230.32 152.88,233.03 C152.31,236.26 152.25,236.17 152.13,231.72 C152.04,228.46 151.52,226.75 150.49,226.36 C148.13,225.45 146.00,227.92 146.00,231.56 C146.00,233.39 145.55,235.16 145.00,235.50 C144.42,235.86 144.00,234.93 144.01,233.31 C144.02,228.09 150.04,221.54 155.92,220.37 C157.61,220.03 159.00,219.45 159.00,219.08 C159.00,218.02 152.04,211.68 145.79,207.05 C139.53,202.41 138.28,200.21 140.06,196.89 C141.38,194.42 141.78,194.37 131.88,197.92 C128.80,199.03 124.30,200.21 121.88,200.54 L 117.50,201.15 L 122.00,197.08 C126.47,193.03 143.28,181.00 144.45,181.00 C144.79,181.00 144.59,181.90 144.00,183.00 C142.94,184.98 142.98,184.98 148.20,182.92 C175.67,172.09 193.42,159.43 200.75,145.43 C205.48,136.39 213.06,115.66 212.02,114.62 C211.53,114.13 206.82,113.50 201.56,113.23 C196.30,112.95 192.00,112.52 192.00,112.27 C192.00,110.14 205.38,102.69 212.37,100.93 C218.91,99.28 217.13,97.60 209.61,98.31 C198.81,99.33 193.37,102.63 186.98,112.03 C181.81,119.65 179.76,121.08 175.66,119.91 C166.75,117.36 149.79,102.04 145.36,92.54 C144.02,89.64 143.02,88.35 143.01,89.50 C143.01,90.60 144.31,94.28 145.92,97.67 C149.54,105.31 158.30,114.24 166.88,119.00 C175.94,124.04 181.14,128.07 183.28,131.74 C185.84,136.12 184.79,137.36 180.20,135.41 C175.13,133.26 163.54,132.50 157.05,133.90 C152.14,134.95 151.50,134.88 149.51,133.01 L 147.35,130.98 L 146.11,133.24 C145.43,134.48 142.91,136.99 140.50,138.82 C138.10,140.64 132.47,145.50 128.00,149.62 C117.51,159.28 114.63,160.99 108.86,161.00 C103.80,161.00 102.88,160.06 103.72,155.69 C104.17,153.34 103.91,153.00 101.68,153.00 C98.37,153.00 94.00,151.33 94.00,150.06 C94.00,146.37 111.82,133.26 125.59,126.81 C131.54,124.03 132.31,123.88 133.72,125.29 C135.84,127.41 134.74,129.66 130.76,131.32 C126.67,133.04 109.29,143.72 108.48,145.03 C107.73,146.24 109.39,145.53 120.50,139.90 C125.45,137.39 132.65,134.06 136.50,132.49 C144.48,129.24 146.35,128.00 143.28,128.00 C142.11,128.00 139.82,126.88 138.18,125.50 C136.55,124.12 134.71,123.00 134.11,123.00 C132.59,123.00 132.70,121.27 134.25,120.75 C134.94,120.52 133.85,119.78 131.84,119.11 C128.02,117.85 126.66,116.04 127.63,113.51 C128.01,112.53 127.28,111.68 125.49,111.00 C123.10,110.09 122.83,109.54 123.21,106.34 C123.54,103.46 123.26,102.62 121.80,102.24 C119.69,101.69 118.52,98.04 119.37,94.65 C119.83,92.82 119.42,92.06 117.48,91.17 C114.74,89.93 114.02,85.38 116.21,83.19 C118.32,81.08 113.75,77.83 87.00,62.43 C57.31,45.33 48.37,39.43 41.50,32.38 C36.26,27.00 31.13,19.00 32.92,19.00 C36.40,19.00 97.50,60.62 111.75,72.70 L 116.99,77.15 L 118.01,74.48 C118.57,73.01 119.92,71.57 121.01,71.29 C123.82,70.55 123.49,69.49 119.75,67.24 C117.96,66.16 113.90,62.98 110.72,60.17 C107.55,57.35 100.57,51.49 95.22,47.13 C83.06,37.23 79.05,33.04 74.61,25.64 C69.99,17.93 68.26,10.40 69.88,5.00 C70.54,2.80 71.40,1.00 71.80,1.00 C72.19,1.00 73.58,3.81 74.88,7.25 C79.73,20.07 85.20,27.15 107.60,49.63 C119.31,61.38 129.14,71.00 129.44,71.00 C131.01,71.00 129.35,68.55 122.95,61.38 C115.74,53.32 109.00,41.67 109.00,37.27 C109.00,33.97 111.91,28.00 113.51,28.00 C114.21,28.00 115.99,31.04 117.47,34.75 C121.42,44.71 125.27,51.15 135.16,64.37 C140.05,70.89 145.25,78.32 146.72,80.87 C153.25,92.23 175.33,118.00 178.53,118.00 C179.24,118.00 181.52,115.64 183.59,112.75 C193.42,99.01 197.31,96.76 212.24,96.19 C227.89,95.59 231.44,97.15 225.37,101.93 C222.38,104.27 222.65,104.47 226.68,102.91 C228.23,102.31 232.20,101.22 235.50,100.49 L 241.50,99.16 L 237.05,99.08 C233.86,99.02 232.91,98.69 233.68,97.92 C235.00,96.60 254.30,96.13 255.00,97.40 C255.28,97.90 251.68,99.73 247.00,101.47 C235.26,105.85 233.10,107.12 227.90,112.68 C221.79,119.21 218.41,125.23 213.94,137.54 C211.88,143.23 208.55,150.35 206.55,153.36 C201.43,161.07 191.51,170.07 176.98,180.18 C162.28,190.41 157.00,195.05 157.00,197.72 C157.00,200.26 169.81,209.87 179.47,214.58 C188.67,219.07 193.97,224.34 194.69,229.73 C195.15,233.17 194.81,234.18 192.14,237.11 C190.45,238.97 189.05,239.99 189.03,239.37 C189.01,238.75 189.68,237.68 190.50,237.00 C191.32,236.32 192.00,234.86 192.00,233.76 C192.00,231.68 185.47,225.00 183.44,225.00 C182.80,225.00 181.54,226.69 180.64,228.75 C179.06,232.40 179.03,232.42 179.45,229.40 C179.69,227.69 179.63,225.28 179.30,224.04 C178.79,222.09 178.24,221.86 175.23,222.35 C170.59,223.10 170.45,223.37 172.76,227.20 C178.13,236.09 177.73,242.15 171.51,245.99 C166.76,248.93 166.38,248.45 170.43,244.63 M 170.09,216.95 C171.17,216.37 171.80,215.48 171.48,214.97 C171.17,214.46 166.69,211.31 161.54,207.98 C156.39,204.64 151.89,201.17 151.55,200.26 C151.19,199.33 151.73,197.49 152.77,196.05 C156.39,191.08 156.43,190.63 153.09,192.61 C148.00,195.61 145.67,198.57 146.34,201.19 C146.92,203.50 158.16,212.95 164.24,216.25 C168.05,218.32 167.63,218.27 170.09,216.95 M 230.81,105.41 C240.62,101.35 242.07,100.44 237.00,101.50 C232.43,102.47 221.14,106.97 220.43,108.11 C219.44,109.72 221.99,109.05 230.81,105.41 M 211.45,105.91 C211.13,105.39 210.44,105.23 209.91,105.55 C209.39,105.87 209.23,106.56 209.55,107.09 C209.87,107.61 210.56,107.77 211.09,107.45 C211.61,107.13 211.77,106.44 211.45,105.91 M 85.86,143.08 L 83.50,141.16 L 86.25,138.27 C87.76,136.69 89.00,134.97 89.00,134.45 C89.00,133.92 86.31,133.65 82.90,133.84 C75.23,134.28 73.29,132.83 77.25,129.64 C78.76,128.42 80.00,127.16 80.00,126.85 C80.00,126.53 77.35,125.30 74.10,124.12 C60.40,119.12 66.67,115.79 96.80,112.06 C105.67,110.96 114.08,109.77 115.50,109.41 C118.19,108.74 122.00,111.13 122.00,113.49 C122.00,114.15 116.14,117.29 108.97,120.48 C101.80,123.66 96.16,126.49 96.43,126.76 C96.69,127.03 101.77,125.44 107.71,123.23 C121.34,118.16 124.97,117.35 126.11,119.14 C126.58,119.89 126.98,120.82 126.98,121.22 C126.99,121.61 121.71,125.37 115.25,129.57 C108.79,133.76 102.38,138.25 101.00,139.54 C98.41,141.98 92.12,145.00 89.64,145.00 C88.86,145.00 87.16,144.14 85.86,143.08 M 187.18,129.39 C185.90,127.42 185.09,125.58 185.37,125.29 C185.91,124.76 189.99,130.91 190.00,132.25 C190.00,133.53 189.58,133.10 187.18,129.39 M 64.17,110.51 C59.92,109.19 56.00,106.48 56.00,104.88 C56.00,104.44 58.81,103.21 62.25,102.17 C66.00,101.03 67.90,100.02 67.00,99.67 C66.17,99.34 63.02,98.15 60.00,97.04 C49.58,93.19 41.26,87.41 43.26,85.41 C44.12,84.55 56.59,86.99 77.00,92.02 C93.54,96.09 101.68,97.89 115.58,100.55 C117.66,100.95 120.55,105.56 119.21,106.34 C118.82,106.57 115.35,107.07 111.50,107.45 C107.65,107.83 98.31,109.01 90.74,110.07 C74.81,112.30 70.15,112.38 64.17,110.51 M 103.12,95.37 C80.04,91.78 51.56,82.45 38.98,74.34 C33.02,70.50 31.74,69.00 34.43,69.00 C36.26,69.00 55.32,72.75 60.35,74.10 C67.04,75.89 65.45,74.35 55.67,69.56 C40.45,62.10 27.92,52.46 29.16,49.14 C30.07,46.69 106.17,83.47 112.47,89.41 C116.20,92.92 116.91,96.31 113.99,96.65 C113.17,96.75 108.28,96.17 103.12,95.37 M 76.60,67.82 C44.99,51.89 42.27,50.31 36.41,44.45 C30.13,38.17 24.87,30.00 27.11,30.00 C27.74,30.00 31.24,32.21 34.88,34.90 C38.52,37.60 49.83,44.29 60.00,49.77 C70.17,55.25 84.12,63.01 91.00,67.01 C97.88,71.02 105.42,75.39 107.77,76.74 C112.16,79.26 114.55,82.30 113.49,84.02 C113.15,84.56 112.35,84.98 111.69,84.96 C111.04,84.93 95.24,77.22 76.60,67.82 M 106.95,65.75 C102.28,62.31 90.21,53.90 80.11,47.05 C61.34,34.31 48.63,23.54 44.35,16.77 C41.82,12.75 38.41,1.25 39.45,0.22 C39.79,-0.12 45.71,5.54 52.61,12.80 C59.51,20.06 70.19,29.92 76.33,34.72 C107.56,59.09 118.00,68.12 118.00,70.72 C118.00,73.15 115.41,71.98 106.95,65.75 Z" fill="rgba(0,0,0,1)"/>
</g>
</svg>